[img]http://i.imgur.com/ArXrT.jpg[/img]

[b][code]

Release Name: Chernobyl Diaries 2012 CAM XviD-26k
Size: 1.37 GB

Quality: 720×272 | 2 300 Kbps | MP3 128 Kbps
Runtime: 1 h 48 mins
Genre: Horror
IMDB rating: 5.6/10 from 2,034 users
Directed by: Bradley Parker
 
http://www.imdb.com/title/tt1991245/


Starring: 

Jesse McCartney, Jonathan Sadowski and Olivia Dudley



Plot: 

Chernobyl Diaries is an original story from Oren Peli, who first terrified audiences with his groundbreaking thriller, Paranormal Activity. The film follows a group of six young vacationers who, looking to go off the beaten path, hire an “extreme” tour guide. Ignoring warnings, he takes them into the city of Pripyat, the former home to the workers of the Chernobyl nuclear reactor, but a deserted town since the disaster more than 25 years ago. After a brief exploration of the abandoned city, however, the group soon finds themselves stranded, only to discover that they are not alone…



Sources - VIDEO: Zapretnaia.zona.2012.D.HD-TS ....Thanks

AUDIO: Erv. ...Thanks



Format : AVI
Format/Info : Audio Video Interleave
File size : 1.37 GiB
Duration : 1h 20mn
Overall bit rate : 2 438 Kbps
Movie name : Zapretnaia.zona.2012.D.HD-TS.ELEKTRI4KA
Drector : ELEKTRI4KA
Genre : Action






Video

ID : 0

Format : MPEG-4 Visual

Format profile : Advanced Simple@L5

Format settings, BVOP : 2

Format settings, QPel : No

Format settings, GMC : No warppoints

Format settings, Matrix : Default (H.263)

Muxing mode : Packed bitstream

Codec ID : XVID

Codec ID/Hint : XviD

Duration : 1h 20mn

Bit rate : 2 300 Kbps

Width : 720 pixels

Height : 272 pixels

Display aspect ratio : 2.647

Frame rate : 25.000 fps

Color space : YUV

Chroma subsampling : 4:2:0

Bit depth : 8 bits

Scan type : Progressive

Compression mode : Lossy

Bits/(Pixel*Frame) : 0.470

Stream size : 1.29 GiB (94%)

Writing library : XviD 1.2.1 (UTC 2008-12-04)



Audio

ID : 1

Format : MPEG Audio

Format version : Version 1

Format profile : Layer 3

Codec ID : 55

Codec ID/Hint : MP3

Duration : 1h 20mn

Bit rate mode : Constant

Bit rate : 128 Kbps

Channel(s) : 1 channel

Sampling rate : 44.1 KHz

Compression mode : Lossy

Delay relative to video : 22ms

Stream size : 73.6 MiB (5%)

Alignment : Split accross interleaves

Interleave, duration : 40 ms (1.00 video frame)

Writing library : LAME3.99.4


[/code][/b]

[img]http://rapidimg.org/images/9VXaA.jpg[/img]







[img]http://torrent-stats.info/a74a/134daf41e.png[/img]